<?xml version="1.0" encoding="utf-8"?>
<!-- Generator: Adobe Illustrator 16.0.0, SVG Export Plug-In . SVG Version: 6.00 Build 0)  -->
<!DOCTYPE svg PUBLIC "-//W3C//DTD SVG 1.0//EN" "http://www.w3.org/TR/2001/REC-SVG-20010904/DTD/svg10.dtd">
<svg version="1.0" id="Layer_2" xmlns="http://www.w3.org/2000/svg" xmlns:xlink="http://www.w3.org/1999/xlink" x="0px" y="0px"
	 width="512px" height="512px" viewBox="0 0 512 512" enable-background="new 0 0 512 512" xml:space="preserve">
<path d="M452.479,90.026c0,0-3.774-28.229-31.137-28.229c-26.423,0-59.403,0-89.062,0c0-7.985,0-17.934,0-25.905
	c0-16.015-10.278-23.347-26.61-23.407c-16.332-0.06-94.347-0.472-104.022,0.145c-9.677,0.616-24.796,8.624-24.796,25.255
	c0,8.714,0,17.51,0,23.913c-29.659,0-62.64,0-89.063,0c-27.359,0-31.133,28.229-31.133,28.229h24.939
	c-0.404,12.725,0.156,87.899,49.434,345.545c7.533,39.378,26.442,39.313,36.069,39.313c55.704,0.063,83.067,0.063,86.27,0.063
	c0.056,0,0.16,0,0.32,0c3.428,0,30.781-0.002,86.207-0.063c9.628,0,29.083,0.066,36.068-39.313
	c45.775-258.065,50.972-332.865,51.558-345.545H452.479z M266,159.5v263h-23.167v-263H266z M178.402,159.5l29.728,263h-22.354
	l-34.282-263H178.402z M323.099,422.5h-22.396l29.728-263h26.951L323.099,422.5z M201.648,36.036l106.442-0.145v25.905
	c-28.497,0-50.146,0-53.314,0c-0.265,0-0.416,0-0.416,0c-3.147,0-24.511,0-52.712,0V36.036z"/>
</svg>
