<?xml version="1.0" encoding="UTF-8" standalone="no"?>
<svg width="90px" height="90px" viewBox="0 0 90 90" version="1.1" xmlns="http://www.w3.org/2000/svg" xmlns:xlink="http://www.w3.org/1999/xlink" xmlns:sketch="http://www.bohemiancoding.com/sketch/ns">
    <!-- Generator: Sketch 3.3.2 (12043) - http://www.bohemiancoding.com/sketch -->
    <title>remove</title>
    <desc>Created with Sketch.</desc>
    <defs></defs>
    <g id="Page-1" stroke="none" stroke-width="1" fill-rule="evenodd" sketch:type="MSPage">
        <g id="Icons" sketch:type="MSArtboardGroup" transform="translate(-824.000000, -247.000000)">
            <g id="2" sketch:type="MSLayerGroup" transform="translate(90.000000, 246.000000)">
                <g id="remove" transform="translate(734.000000, 1.000000)" sketch:type="MSShapeGroup">
                    <path d="M45.2079208,79.7524752 L45.2079208,89.8881437 C45.2079208,89.8881437 62.3945625,89.6555047 64.976874,89.6555001 C67.5591854,89.6554955 68.6790248,84.6833696 68.6790248,84.6833696 L79.8360558,16.4061782 C79.8360558,16.4061782 84.4158413,16.4061782 84.4158416,16.4061774 C84.4158419,12.5676139 79.8360558,11.3961749 79.8360558,11.3961749 L60.5919944,11.3961749 C60.5919944,11.3961749 60.5919946,5.61808059 60.5919947,2.94640432 C60.5919948,0.274728046 57.7476268,0.111856327 57.7476268,0.111856327 L45.2079211,0.111856327 L45.2079211,4.69336931 L56.4616761,4.69336924 L56.4616758,11.2099588 L45.2079208,11.2099588 L45.2079208,19.3811881 L47.2122891,19.3811881 L47.2122891,79.7524752 L45.2079208,79.7524752 L45.2079208,79.7524752 Z M45.2079208,79.7524752 L45.2079208,89.8881437 C45.2079208,89.8881437 28.021279,89.6555047 25.4389676,89.6555001 C22.8566562,89.6554955 21.7368168,84.6833696 21.7368168,84.6833696 L10.5797858,16.4061782 C10.5797858,16.4061782 6.00000029,16.4061782 6,16.4061774 C5.99999971,12.5676139 10.5797858,11.3961749 10.5797858,11.3961749 L29.8238472,11.3961749 C29.8238472,11.3961749 29.823847,5.61808059 29.8238468,2.94640432 C29.8238467,0.274728046 32.6682148,0.111856327 32.6682148,0.111856327 L45.2079205,0.111856327 L45.2079205,4.69336931 L33.9541655,4.69336924 L33.9541658,11.2099588 L45.2079208,11.2099588 L45.2079208,19.3811881 L43.2023882,19.3811881 L43.2023882,79.7524752 L45.2079208,79.7524752 L45.2079208,79.7524752 Z M22.8515851,18.8767226 L26.8121175,18.2494359 L37.2668961,84.2583101 L33.3063637,84.8855968 L22.8515851,18.8767226 Z M67.5630922,18.7696023 L63.6025598,18.1423156 L53.1477812,84.1511898 L57.1083136,84.7784765 L67.5630922,18.7696023 Z" id="Path-65"></path>
                    <rect id="Rectangle-17" x="17.1387918" y="16.039604" width="55.2460046" height="4.00990099"></rect>
                    <rect id="Rectangle-18" x="29.1681638" y="79.7524752" width="33.8604544" height="8.01980198"></rect>
                </g>
            </g>
        </g>
    </g>
</svg>
