<?xml version="1.0" encoding="UTF-8" standalone="no"?>
<svg width="91px" height="91px" viewBox="0 0 91 91" version="1.1" xmlns="http://www.w3.org/2000/svg" xmlns:xlink="http://www.w3.org/1999/xlink" xmlns:sketch="http://www.bohemiancoding.com/sketch/ns">
    <!-- Generator: Sketch 3.3.2 (12043) - http://www.bohemiancoding.com/sketch -->
    <title>edit</title>
    <desc>Created with Sketch.</desc>
    <defs></defs>
    <g id="Page-1" stroke="none" stroke-width="1" fill-rule="evenodd" sketch:type="MSPage">
        <g id="Icons" sketch:type="MSArtboardGroup" transform="translate(-952.000000, -252.000000)">
            <g id="2" sketch:type="MSLayerGroup" transform="translate(90.000000, 246.000000)">
                <g id="edit" transform="translate(859.384759, 11.156671)" sketch:type="MSShapeGroup">
                    <g transform="translate(48.500000, 40.000000) rotate(42.000000) translate(-48.500000, -40.000000) translate(39.000000, -5.000000)">
                        <path d="M0.182895706,18.2092607 L18.8382577,18.2092607 L18.8382577,70.0098653 C18.8382577,73.3205023 17.6834461,78.4368973 16.1748954,81.3775857 C16.1748954,81.3775857 12.68286,89.699206 9.51057673,89.699206 C6.46440596,89.699206 2.87523428,81.3579496 2.87523428,81.3579496 C1.38829674,78.4012127 0.182895706,73.3134748 0.182895706,70.0098653 L0.182895706,18.2092607 Z M4.02370554,76.1153561 C4.02370554,76.1153561 7.99564923,85.7080907 9.49446449,85.9700223 C10.9932797,86.2319539 14.9652236,76.1153561 14.9652236,76.1153561 L4.02370554,76.1153561 Z" id="Rectangle-19"></path>
                        <rect id="Rectangle-20" x="0.182895706" y="0.28548151" width="18.655362" height="14.6316565"></rect>
                    </g>
                </g>
            </g>
        </g>
    </g>
</svg>
