<?xml version="1.0" encoding="utf-8"?>
<!-- Generator: Adobe Illustrator 16.0.0, SVG Export Plug-In . SVG Version: 6.00 Build 0)  -->
<!DOCTYPE svg PUBLIC "-//W3C//DTD SVG 1.0//EN" "http://www.w3.org/TR/2001/REC-SVG-20010904/DTD/svg10.dtd">
<svg version="1.0" xmlns="http://www.w3.org/2000/svg" xmlns:xlink="http://www.w3.org/1999/xlink" x="0px" y="0px" width="512px"
	 height="512px" viewBox="0 0 512 512" enable-background="new 0 0 512 512" xml:space="preserve">
<g id="Layer_2">
</g>
<g id="Layer_1">
	<polygon points="225.873,435.872 143.439,378.401 320.814,122.723 403.248,180.192 	"/>
	<path d="M449.696,110.702c6.028-8.689,6.321-15.105-1.483-20.52c-7.806-5.415-54.634-38.185-60.797-42.46
		c-6.163-4.275-14.125-3.179-20.496,6.006c-6.372,9.185-35.824,51.637-35.824,51.637l82.435,57.47
		C413.53,162.835,443.669,119.391,449.696,110.702z"/>
	<path d="M143.439,378.401c0,0-15.569,80.746-17.704,96.47c-1.651,12.16,5.041,19.452,18.8,11.049
		c14.004-8.553,81.337-50.048,81.337-50.048l5.871-8.463l-14.15-10.617c0,0-58.443,39.616-65.344,44.708s-9.824,4.162-7.25-4.25
		s19-73.75,19-73.75l-15.585-12.271L143.439,378.401z"/>
</g>
</svg>
