<?xml version="1.0" encoding="UTF-8" standalone="no"?>
<svg width="110px" height="110px" viewBox="0 0 110 110" version="1.1" xmlns="http://www.w3.org/2000/svg" xmlns:xlink="http://www.w3.org/1999/xlink" xmlns:sketch="http://www.bohemiancoding.com/sketch/ns">
    <!-- Generator: Sketch 3.3.2 (12043) - http://www.bohemiancoding.com/sketch -->
    <title>interrogation</title>
    <desc>Created with Sketch.</desc>
    <defs></defs>
    <g id="Page-1" stroke="none" stroke-width="1" fill-rule="evenodd" sketch:type="MSPage">
        <g id="Icons" sketch:type="MSArtboardGroup" transform="translate(-80.000000, -74.000000)">
            <g id="1" sketch:type="MSLayerGroup" transform="translate(80.000000, 74.000000)">
                <g id="interrogation" sketch:type="MSShapeGroup">
                    <path d="M55,100 C79.8528137,100 100,79.8528137 100,55 C100,30.1471863 79.8528137,10 55,10 C30.1471863,10 10,30.1471863 10,55 C10,79.8528137 30.1471863,100 55,100 Z M55,93 C75.9868205,93 93,75.9868205 93,55 C93,34.0131795 75.9868205,17 55,17 C34.0131795,17 17,34.0131795 17,55 C17,75.9868205 34.0131795,93 55,93 Z" id="Oval-43"></path>
                    <path d="M42.3284969,35.4686809 L46.8642976,39.0536779 C46.8642976,39.0536779 49.0383186,36.3055397 51.9763632,34.808118 C54.9144077,33.3106962 60.8571579,32.7862669 63.2054615,37.5726295 C66.0861309,43.4440715 58.1118364,48.4802719 58.1118364,48.4802719 C58.1118364,48.4802719 52.504714,52.7468048 50.9790392,57.2213779 C49.5241509,61.4883449 50.9790392,67.0263973 50.9790392,67.0263973 L56.543231,67.0263973 C56.543231,67.0263973 56.1111631,61.1155277 57.3450875,58.7631255 C58.5790119,56.4107233 59.5883255,55.0105015 63.79016,51.8536763 C67.9919945,48.6968511 75.1588878,40.0765709 67.6035058,31.6670253 C63.0488868,26.59749 49.9419398,25.3028762 42.3284969,35.4686809 Z" id="Path-82"></path>
                    <circle id="Oval-42" cx="54" cy="78" r="5"></circle>
                </g>
            </g>
        </g>
    </g>
</svg>
